<svg width="590" height="372" viewBox="0 0 590 372" fill="none" xmlns="http://www.w3.org/2000/svg">
<path d="M1.33008 371.533V0.052948C1.33008 0.052948 57.2401 -3.83704 70.0901 55.703C70.0901 55.703 104.73 67.383 107.45 96.953C107.45 96.953 126.52 105.123 130.41 119.913C130.41 119.913 184.51 98.123 218.76 150.663C218.76 150.663 237.83 140.153 251.84 143.273C251.84 143.273 281.43 118.263 320.34 114.863C358.28 111.553 405.37 129.253 419.97 174.803C419.97 174.803 494.31 159.233 526.61 242.523C526.61 242.523 593.94 256.143 589.27 371.543H1.33008V371.533Z" fill="#F33010"/>
<path d="M512.66 260.153L506.59 259.133C506.59 259.133 497.27 183.063 412.06 196.463L405.88 197.553C404.43 169.423 378.92 138.883 334.33 135.673C297.78 133.043 271.85 155.873 263.52 164.393L260.65 167.513C233.23 159.163 215.08 177.473 208.64 185.583L206.03 189.203C208.03 172.703 204.27 154.193 184.49 144.043C157.49 130.183 137.15 135.753 124.25 144.843L120.77 147.523C116.86 130.913 108.19 117.533 93.5601 112.013L89.5301 110.573C89.5301 81.323 68.8301 74.963 56.6001 73.763L47.8401 73.663C50.8301 66.283 51.5501 56.603 46.8301 44.223C36.3301 16.653 1.31006 21.103 1.31006 21.103V371.533H567.26C567.28 290.803 538.83 265.943 512.66 260.153Z" fill="#F6501A"/>
<path d="M554.94 371.533C554.36 323.933 543.42 292.783 522.4 278.903C498.6 263.193 468.55 275.583 468.25 275.703C464.74 277.213 460.65 275.583 459.13 272.073C457.61 268.553 459.24 264.463 462.76 262.943C463.32 262.703 476.4 257.143 493.12 256.953C490.17 246.833 483.31 230.613 468.14 219.683C453.28 208.983 433.49 205.503 409.29 209.353C408.32 243.973 391.92 280.303 348.53 280.303C325.96 280.303 307.51 269.653 300.36 252.503C293.56 236.173 298.36 217.483 313.2 202.523C315.9 199.803 320.3 199.783 323.02 202.483C325.74 205.183 325.76 209.583 323.06 212.303C312.3 223.153 308.6 236.183 313.18 247.163C318.13 259.043 331.67 266.413 348.53 266.413C392.08 266.413 395.46 220.183 395.46 206.013C395.46 193.213 389.51 179.953 379.13 169.643C370.75 161.313 355.62 151.023 331.1 149.253C302.78 147.223 280.95 162.663 271.1 171.313C273.79 172.653 276.5 174.203 279.18 175.943C280.74 176.953 281.81 178.503 282.2 180.313C282.59 182.123 282.25 183.983 281.24 185.543C279.16 188.753 274.86 189.683 271.64 187.603C259.62 179.833 248.12 177.103 237.46 179.483C223.45 182.623 214.33 193.743 211.48 197.693C210.44 204.933 208.28 212.483 205.2 219.553C200.64 230.033 191.75 238.683 180.79 243.293C169.02 248.243 155.77 248.223 143.49 243.233C135.52 239.993 130.01 234.743 127.1 227.623C121.68 214.353 127.92 199.643 128.19 199.023C129.71 195.523 133.79 193.903 137.3 195.413C140.81 196.923 142.44 201.003 140.95 204.513C140.91 204.613 136.78 214.653 139.97 222.403C141.44 225.963 144.3 228.573 148.72 230.373C167.94 238.193 186.39 227.973 192.46 214.023C193.67 211.233 196.61 203.813 197.81 194.933C197.83 194.573 197.87 194.203 197.95 193.853C200.01 176.333 194.06 163.863 180.27 156.783C155.78 144.213 138.53 149.693 128.12 156.913C129.26 163.153 129.84 169.823 129.84 176.773C129.84 206.513 104.99 238.363 68 238.363C62.5 238.363 43.2 237.523 25.82 226.733C8.93 216.243 0 200.033 0 179.853C0 136.093 29.36 124.423 46.71 124.423C63.45 124.423 80.33 134.663 80.33 157.533C80.33 177.043 65.95 185.113 58.35 186.653C56.53 187.023 54.68 186.663 53.13 185.643C51.58 184.623 50.53 183.053 50.16 181.233C49.79 179.413 50.15 177.563 51.18 176.013C52.2 174.463 53.77 173.413 55.59 173.043C56.03 172.953 66.45 170.683 66.45 157.533C66.45 140.183 52.65 138.313 46.71 138.313C43.35 138.313 13.89 139.483 13.89 179.853C13.89 215.153 49.29 224.473 68 224.473C96.69 224.473 115.96 199.803 115.96 176.773C115.96 160.963 112.72 147.633 106.59 138.253C100.06 128.253 90.35 123.173 77.75 123.173C73.92 123.173 70.81 120.063 70.81 116.233C70.81 112.403 73.92 109.293 77.75 109.293C79.13 109.293 80.52 109.343 81.9 109.443C80.76 103.403 78.25 98.593 74.39 95.133C67.56 88.983 57.69 87.933 52.74 87.8329C45.15 101.383 31.41 107.033 31.27 107.093C27.73 108.513 23.69 106.783 22.26 103.253C20.83 99.713 22.54 95.663 26.07 94.213C27.13 93.783 51.84 83.253 40.85 54.383C32.55 32.583 4.38 35.793 3.19 35.943C2.9 35.983 2.62 35.993 2.33 36.003H1.33V22.283L2.1 22.0829C3.96 21.873 5.94 21.7729 8 21.7729C16.28 21.7729 44.05 23.7729 53.82 49.443C57.16 58.213 58.32 66.523 57.29 74.173C65.13 74.883 75.39 77.383 83.61 84.753C91.11 91.473 95.37 100.833 96.28 112.593C105.26 116.063 112.63 122.133 118.2 130.653C120.58 134.293 122.62 138.393 124.3 142.883C132.94 137.883 142.39 135.343 152.45 135.353C163.37 135.353 174.86 138.413 186.6 144.433C200.23 151.433 208.72 162.863 211.33 177.653C218.37 171.753 226.08 167.833 234.3 165.973C241.48 164.343 248.92 164.363 256.44 166.033C264.43 157.773 289.61 135.183 325.74 135.183C327.84 135.183 329.97 135.263 332.08 135.413C360.85 137.483 378.86 149.823 388.91 159.803C399.03 169.863 405.87 182.443 408.32 195.443C415 194.433 421.45 193.923 427.51 193.923C446.55 193.923 462.98 198.823 476.34 208.483C497.93 224.103 505.43 247.593 507.82 258.273C515.86 259.863 523.3 262.873 529.95 267.253C555.14 283.813 568.2 318.883 568.83 371.533H554.94Z" fill="#F83F11"/>
</svg>
