<svg width="590" height="372" viewBox="0 0 590 372" fill="none" xmlns="http://www.w3.org/2000/svg">
<path d="M588.67 371.533V0.052948C588.67 0.052948 532.76 -3.83704 519.91 55.703C519.91 55.703 485.27 67.383 482.55 96.953C482.55 96.953 463.48 105.123 459.59 119.913C459.59 119.913 405.49 98.123 371.24 150.663C371.24 150.663 352.17 140.153 338.16 143.273C338.16 143.273 308.57 118.263 269.66 114.863C231.72 111.553 184.63 129.253 170.03 174.803C170.03 174.803 95.6899 159.233 63.39 242.523C63.39 242.523 -3.94006 256.143 0.729919 371.543H588.67V371.533Z" fill="#F33010"/>
<path d="M77.34 260.153L83.4099 259.133C83.4099 259.133 92.7299 183.063 177.94 196.463L184.12 197.553C185.57 169.423 211.08 138.883 255.67 135.673C292.22 133.043 318.15 155.873 326.48 164.393L329.35 167.513C356.77 159.163 374.92 177.473 381.36 185.583L383.97 189.203C381.97 172.703 385.73 154.193 405.51 144.043C432.51 130.183 452.85 135.753 465.75 144.843L469.23 147.523C473.14 130.913 481.81 117.533 496.44 112.013L500.47 110.573C500.47 81.323 521.17 74.963 533.4 73.763L542.16 73.663C539.17 66.283 538.45 56.603 543.17 44.223C553.67 16.653 588.69 21.103 588.69 21.103V371.533H22.7399C22.7199 290.803 51.17 265.943 77.34 260.153Z" fill="#F6501A"/>
<path d="M35.06 371.533C35.64 323.933 46.58 292.783 67.6 278.903C91.4 263.193 121.45 275.583 121.75 275.703C125.26 277.213 129.35 275.583 130.87 272.073C132.39 268.553 130.76 264.463 127.24 262.943C126.68 262.703 113.6 257.143 96.88 256.953C99.83 246.833 106.69 230.613 121.86 219.683C136.72 208.983 156.51 205.503 180.71 209.353C181.68 243.973 198.08 280.303 241.47 280.303C264.04 280.303 282.49 269.653 289.64 252.503C296.44 236.173 291.64 217.483 276.8 202.523C274.1 199.803 269.7 199.783 266.98 202.483C264.26 205.183 264.24 209.583 266.94 212.303C277.7 223.153 281.4 236.183 276.82 247.163C271.87 259.043 258.33 266.413 241.47 266.413C197.92 266.413 194.54 220.183 194.54 206.013C194.54 193.213 200.49 179.953 210.87 169.643C219.25 161.313 234.38 151.023 258.9 149.253C287.22 147.223 309.05 162.663 318.9 171.313C316.21 172.653 313.5 174.203 310.82 175.943C309.26 176.953 308.19 178.503 307.8 180.313C307.41 182.123 307.75 183.983 308.76 185.543C310.84 188.753 315.14 189.683 318.36 187.603C330.38 179.833 341.88 177.103 352.54 179.483C366.55 182.623 375.67 193.743 378.52 197.693C379.56 204.933 381.72 212.483 384.8 219.553C389.36 230.033 398.25 238.683 409.21 243.293C420.98 248.243 434.23 248.223 446.51 243.233C454.48 239.993 459.99 234.743 462.9 227.623C468.32 214.353 462.08 199.643 461.81 199.023C460.29 195.523 456.21 193.903 452.7 195.413C449.19 196.923 447.56 201.003 449.05 204.513C449.09 204.613 453.22 214.653 450.03 222.403C448.56 225.963 445.7 228.573 441.28 230.373C422.06 238.193 403.61 227.973 397.54 214.023C396.33 211.233 393.39 203.813 392.19 194.933C392.17 194.573 392.13 194.203 392.05 193.853C389.99 176.333 395.94 163.863 409.73 156.783C434.22 144.213 451.47 149.693 461.88 156.913C460.74 163.153 460.16 169.823 460.16 176.773C460.16 206.513 485.01 238.363 522 238.363C527.5 238.363 546.8 237.523 564.18 226.733C581.07 216.243 590 200.033 590 179.853C590 136.093 560.64 124.423 543.29 124.423C526.55 124.423 509.67 134.663 509.67 157.533C509.67 177.043 524.05 185.113 531.65 186.653C533.47 187.023 535.32 186.663 536.87 185.643C538.42 184.623 539.47 183.053 539.84 181.233C540.21 179.413 539.85 177.563 538.82 176.013C537.8 174.463 536.23 173.413 534.41 173.043C533.97 172.953 523.55 170.683 523.55 157.533C523.55 140.183 537.35 138.313 543.29 138.313C546.65 138.313 576.11 139.483 576.11 179.853C576.11 215.153 540.71 224.473 522 224.473C493.31 224.473 474.04 199.803 474.04 176.773C474.04 160.963 477.28 147.633 483.41 138.253C489.94 128.253 499.65 123.173 512.25 123.173C516.08 123.173 519.19 120.063 519.19 116.233C519.19 112.403 516.08 109.293 512.25 109.293C510.87 109.293 509.48 109.343 508.1 109.443C509.24 103.403 511.75 98.593 515.61 95.133C522.44 88.983 532.31 87.933 537.26 87.8329C544.85 101.383 558.59 107.033 558.73 107.093C562.27 108.513 566.31 106.783 567.74 103.253C569.17 99.713 567.46 95.663 563.93 94.213C562.87 93.783 538.16 83.253 549.15 54.383C557.45 32.583 585.62 35.793 586.81 35.943C587.1 35.983 587.38 35.993 587.67 36.003H588.67V22.283L587.9 22.0829C586.04 21.873 584.06 21.7729 582 21.7729C573.72 21.7729 545.95 23.7729 536.18 49.443C532.84 58.213 531.68 66.523 532.71 74.173C524.87 74.883 514.61 77.383 506.39 84.753C498.89 91.473 494.63 100.833 493.72 112.593C484.74 116.063 477.37 122.133 471.8 130.653C469.42 134.293 467.38 138.393 465.7 142.883C457.06 137.883 447.61 135.343 437.55 135.353C426.63 135.353 415.14 138.413 403.4 144.433C389.77 151.433 381.28 162.863 378.67 177.653C371.63 171.753 363.92 167.833 355.7 165.973C348.52 164.343 341.08 164.363 333.56 166.033C325.57 157.773 300.39 135.183 264.26 135.183C262.16 135.183 260.03 135.263 257.92 135.413C229.15 137.483 211.14 149.823 201.09 159.803C190.97 169.863 184.13 182.443 181.68 195.443C175 194.433 168.55 193.923 162.49 193.923C143.45 193.923 127.02 198.823 113.66 208.483C92.07 224.103 84.57 247.593 82.18 258.273C74.14 259.863 66.7 262.873 60.05 267.253C34.86 283.813 21.8 318.883 21.17 371.533H35.06Z" fill="#F83F11"/>
</svg>
