<svg width="278" height="77" viewBox="0 0 278 77" fill="none" xmlns="http://www.w3.org/2000/svg">
<g clip-path="url(#clip0_1013_24)">
<path d="M21.2631 54.6203L55.962 19.6816L70.0342 33.851C72.5825 36.4169 72.5825 40.5828 70.0342 43.1487L39.9523 73.4387C37.404 76.0045 33.2667 76.0045 30.7184 73.4387L21.2631 63.918C18.7149 61.3521 18.7149 57.1862 21.2631 54.6203Z" fill="url(#paint0_linear_1013_24)"/>
<path d="M39.9526 3.56094L70.0352 33.8516C72.5835 36.4174 72.5835 40.5833 70.0352 43.1492L55.963 57.3187L21.2635 22.3792C18.7152 19.8134 18.7152 15.6475 21.2635 13.0816L30.7188 3.56094C33.2671 0.995042 37.4043 0.995043 39.9526 3.56094Z" fill="url(#paint1_linear_1013_24)"/>
<path d="M28.0521 41.0515L15.9044 53.2832C14.4672 54.7304 12.1385 54.7304 10.7021 53.2832L6.98249 49.5378C5.54523 48.0906 5.54523 45.7458 6.98249 44.2986L12.8084 38.4324L6.98249 32.5661C5.54523 31.1189 5.54615 28.7741 6.98249 27.3269L10.7021 23.5816C12.1394 22.1344 14.4681 22.1344 15.9044 23.5816L28.0521 35.8132C29.4894 37.2604 29.4894 39.6052 28.0521 41.0515Z" fill="url(#paint2_linear_1013_24)"/>
<path d="M207.336 35.5734C207.322 30.6291 205.021 26.9696 199.753 26.9817C196.736 26.9901 194.269 27.9763 192.467 30.4956L191.75 30.4975C190.589 28.3253 188.484 26.9752 185.28 26.9817C182.26 26.9901 179.797 27.9763 177.992 30.4956L172.424 30.5096L172.473 49.479L178.261 49.4641L178.236 38.7263C178.229 35.9112 179.12 31.4306 183.308 31.4203C185.747 31.4147 186.606 32.9776 186.91 34.812L186.948 49.4781L192.737 49.4632V49.4286H192.898L192.864 36.6782C193.26 34.1458 194.523 31.4278 197.785 31.4194C201.492 31.411 201.546 35.0322 201.555 37.7167L201.584 49.4408L207.372 49.4277L207.338 35.5725L207.336 35.5734Z" fill="#F0F4F7"/>
<path d="M106.408 45.7337C102.831 45.7411 100.323 43.7453 100.054 40.2136L115.405 40.1744C115.386 32.512 113.043 26.9416 104.806 26.9621C97.9088 26.9798 94.5135 32.2237 94.5284 38.5677C94.5469 45.7626 98.8272 49.9213 106.162 49.9017C106.372 49.9017 106.568 49.8914 106.774 49.884L106.764 45.7141C106.643 45.7187 106.528 45.7327 106.407 45.7327M105.162 31.1367C108.395 31.1273 109.696 33.5057 109.875 36.2723L100.043 36.2956C100.294 33.3574 101.926 31.1441 105.162 31.1367Z" fill="#F0F4F7"/>
<path d="M140.218 38.5546C140.201 31.4119 138.372 26.6551 129.503 26.6551H129.438C122.988 26.6728 118.833 31.3485 118.852 38.5686C118.869 45.8577 123.314 50.2096 130.742 50.2096H130.794C130.95 50.2096 131.1 50.204 131.251 50.1984L131.719 50.1825L131.706 45.394L131.24 45.4164C131.174 45.422 131.108 45.4267 131.023 45.4267C127.652 45.4267 125.061 43.01 124.501 40.6717C124.259 39.692 124.164 38.6358 124.504 36.6511C125.023 33.2025 126.803 31.4502 129.811 31.4436C133.357 31.4436 134.082 34.4808 134.197 36.2732L134.207 38.8746L140.219 38.8606V38.5537L140.218 38.5546Z" fill="#F0F4F7"/>
<path d="M149.881 37.8333C149.872 34.5517 151.678 31.3065 155.437 31.2981C159.231 31.2869 161.054 34.4369 161.063 37.8063C161.069 41.4695 159.918 45.3987 155.474 45.409C151.065 45.4192 149.892 41.4555 149.881 37.8333ZM143.837 38.5303C143.855 44.8379 148.137 49.856 155.484 49.8382C162.863 49.8205 167.128 44.781 167.114 38.4734C167.097 31.229 162.029 26.852 155.426 26.8669C148.862 26.8837 143.819 31.285 143.836 38.5313L143.837 38.5303Z" fill="#F0F4F7"/>
<path d="M247.387 46.2188C245.626 48.3546 243.12 49.7235 240.1 49.7309C234.836 49.7449 232.53 46.0835 232.518 41.1401L232.481 27.298L238.269 27.2821L238.298 38.9959C238.307 41.6785 238.361 45.3054 242.075 45.296C246.263 45.2867 247.157 40.8033 247.149 37.9947L247.124 27.2523L252.848 27.2121L252.925 46.2039L247.386 46.2179L247.387 46.2188Z" fill="#F0F4F7"/>
<path d="M264.236 32.1976C264.487 30.1504 266.853 26.6924 270.31 26.684C270.866 26.6822 271.473 26.6803 272.081 26.851L272.096 32.6034C271.565 32.3049 270.541 32.1397 269.505 32.1416C264.792 32.1528 264.807 37.9546 264.813 41.1065L264.836 49.1618L259.051 49.1767L259.01 32.1985H264.236V32.1976Z" fill="#F0F4F7"/>
<path d="M217.963 33.4413C217.96 31.801 219.379 31.1646 220.782 31.0293L220.771 26.8137C220.726 26.8137 220.682 26.8081 220.636 26.8081C216.084 26.8203 211.893 28.929 211.905 33.6718C211.925 41.6253 222.007 38.6498 222.021 42.969C222.023 44.8846 220.143 45.533 218.693 45.6487L218.705 49.8588H218.742C223.466 49.8485 228.096 47.7827 228.08 42.6526C228.06 34.7019 217.973 36.9488 217.962 33.4404L217.963 33.4413Z" fill="#F0F4F7"/>
</g>
<defs>
<linearGradient id="paint0_linear_1013_24" x1="25.991" y1="68.6782" x2="65.5785" y2="29.3635" gradientUnits="userSpaceOnUse">
<stop stop-color="#93C6F4"/>
<stop offset="0.12" stop-color="#88C4F3"/>
<stop offset="0.46" stop-color="#6EC1F2"/>
<stop offset="0.76" stop-color="#5EBFF2"/>
<stop offset="1" stop-color="#59BFF2"/>
</linearGradient>
<linearGradient id="paint1_linear_1013_24" x1="25.9907" y1="8.32039" x2="65.5782" y2="47.6361" gradientUnits="userSpaceOnUse">
<stop stop-color="#EFF6FD"/>
<stop offset="0.28" stop-color="#CDE6FA"/>
<stop offset="0.56" stop-color="#B3DAF7"/>
<stop offset="0.8" stop-color="#A3D3F6"/>
<stop offset="1" stop-color="#9ED1F6"/>
</linearGradient>
<linearGradient id="paint2_linear_1013_24" x1="4.62815" y1="29.6978" x2="22.0981" y2="47.0478" gradientUnits="userSpaceOnUse">
<stop stop-color="#EFF6FD"/>
<stop offset="0.28" stop-color="#CDE6FA"/>
<stop offset="0.56" stop-color="#B3DAF7"/>
<stop offset="0.8" stop-color="#A3D3F6"/>
<stop offset="1" stop-color="#9ED1F6"/>
</linearGradient>
<clipPath id="clip0_1013_24">
<rect width="278" height="77" fill="white"/>
</clipPath>
</defs>
</svg>
