<svg width="261" height="336" viewBox="0 0 261 336" fill="none" xmlns="http://www.w3.org/2000/svg">
<path d="M-99.9922 335.275C-99.9922 335.275 -56.4687 338.303 -46.4656 291.954C-46.4656 291.954 -19.4999 282.861 -17.3825 259.842C-17.3825 259.842 -2.53731 253.482 0.490886 241.969C0.490886 241.969 42.6054 258.932 69.2675 218.032C69.2675 218.032 84.1126 226.213 95.0188 223.784C95.0188 223.784 118.053 243.254 148.343 245.9C177.878 248.477 229.007 238.684 234.456 172.437C234.456 172.437 268.871 163.968 259.328 98.9823C253.435 58.8607 215.952 60.6044 215.952 60.6044C215.952 60.6044 196.615 -7.36256 126.219 28.9991C126.219 28.9991 78.4533 -36.4457 -7.87751 29.2949C-7.87751 29.2949 -37.2564 16.8708 -51.5878 34.1447C-51.5878 34.1447 -74.7002 18.2409 -100 26.7182V335.275H-99.9922Z" fill="#F94B18"/>
<path d="M240.995 106.697C240.995 106.697 249.324 161.228 214.115 157.382L214.94 181.514C213.811 203.412 193.953 227.186 159.241 229.685C130.789 231.732 110.604 213.96 104.119 207.328L101.885 204.899C80.5395 211.399 66.4106 197.146 61.3973 190.832L59.3656 188.014C60.9225 200.859 57.9955 215.268 42.5976 223.169C21.5793 233.959 5.7455 229.623 -4.29659 222.547L-7.00562 220.46C-10.0494 233.391 -16.7986 243.806 -28.1874 248.103L-31.3246 249.224C-31.3246 271.994 -47.4386 276.945 -56.9591 277.879L-63.7784 277.957C-61.4508 283.702 -60.8903 291.238 -64.5647 300.875C-72.7229 322.345 -99.9922 318.881 -99.9922 318.881V46.0862C-99.9922 46.0862 -85.1937 29.2872 -51.58 54.8906C-51.58 54.8906 -41.5301 46.0862 -26.8251 46.0862C-16.8842 46.0862 -5.19181 58.923 -5.19181 58.923C-5.19181 58.923 7.10779 18.4355 69.5867 18.4355C107.996 18.4355 122.716 56.7122 122.716 56.7122C122.716 56.7122 131.63 35.398 167.984 35.398C201.122 35.398 201.013 79.2874 201.013 79.2874C237.967 65.2752 240.995 106.697 240.995 106.697Z" fill="#FC892E"/>
<path d="M-99.9922 40.9095C-92.3945 37.0951 -83.4266 35.9274 -73.26 39.1969C-63.2335 42.4197 -55.9316 46.9192 -50.6147 51.8857C-43.2505 44.9653 -35.3025 41.6802 -26.9574 42.1473C-17.9196 42.6455 -10.6021 47.503 -6.18045 51.333C-4.26545 47.8923 -1.78996 44.179 1.37836 40.4658C11.8019 28.2829 32.0884 13.757 69.5867 13.757C86.954 13.757 102.445 21.5182 114.371 36.1921C118.357 41.0963 121.307 45.985 123.37 49.924C127.153 43.7197 132.712 38.7532 139.173 35.943C158.331 27.6135 185.055 26.3524 197.3 50.2121C201.815 59.0086 203.831 66.9021 204.267 73.8538C210.542 72.9196 222.078 72.5148 231.552 79.5988C240.917 86.5971 245.666 98.8266 245.666 115.945C245.666 135.757 240.94 149.481 231.622 156.72C226.726 160.527 221.541 161.734 217.532 161.983C218.381 166.918 218.786 171.97 218.786 176.96C218.786 189.719 213.009 202.774 202.944 212.785C195.128 220.554 181.116 230.144 158.704 231.756C157.031 231.873 155.388 231.935 153.777 231.935C125.293 231.935 105.668 214.061 99.4716 207.561C96.3889 208.278 93.3374 208.651 90.3092 208.651C87.4912 208.651 84.7121 208.34 81.9563 207.717C74.0005 205.911 67.695 201.785 63.1411 197.753C61.6231 208.558 55.9948 218.522 43.8665 224.742C33.8244 229.895 24.9656 231.81 17.3367 231.81C7.8629 231.81 0.304089 228.852 -5.23852 225.481C-6.59303 229.296 -8.2745 232.776 -10.2907 235.858C-14.6968 242.607 -20.5741 247.356 -27.6347 249.964C-28.2575 259.235 -31.527 266.592 -37.3888 271.838C-44.1146 277.856 -52.6776 279.6 -58.5161 280.028C-57.6208 285.524 -58.0879 292.141 -61.0616 299.941C-67.5228 316.903 -84.8901 321.216 -96.4113 321.216C-97.6802 321.216 -98.879 321.161 -99.9766 321.068L-99.9922 311.695C-97.1275 311.983 -76.2026 313.486 -69.7881 296.632C-66.0282 286.761 -66.8222 278.393 -72.139 271.768C-76.3038 266.584 -81.8075 264.272 -81.8697 264.249C-84.244 263.268 -85.3961 260.551 -84.4309 258.169C-83.4656 255.787 -80.7565 254.627 -78.3745 255.592C-78.0709 255.717 -70.8546 258.667 -65.1485 265.572C-63.9185 267.067 -62.6964 268.818 -61.6299 270.819C-57.543 270.795 -49.3303 270.032 -43.5853 264.856C-40.199 261.804 -38.0816 257.53 -37.2564 252.12C-38.6343 252.253 -40.0433 252.33 -41.4834 252.33C-44.0601 252.33 -46.1542 250.236 -46.1542 247.66C-46.1542 245.083 -44.0601 242.989 -41.4834 242.989C-23.0107 242.989 -15.4674 229.779 -12.4782 217.105C-12.447 216.918 -12.4081 216.724 -12.3458 216.537C-10.9368 210.286 -10.6021 204.222 -10.6021 199.995C-10.6021 181.475 -26.0934 161.64 -49.1512 161.64C-64.1599 161.64 -92.5501 169.152 -92.5501 197.566C-92.5501 229.452 -70.3642 231.071 -65.9114 231.071C-62.0814 231.071 -49.5794 229.919 -49.5794 215.144C-49.5794 204.518 -57.8621 202.354 -58.8119 202.136C-61.3418 201.622 -62.9532 199.162 -62.4395 196.632C-61.9257 194.102 -59.4424 192.475 -56.9124 192.989C-51.1441 194.156 -40.2457 200.298 -40.2457 215.136C-40.2457 232.597 -53.1447 240.404 -65.9192 240.404C-76.9421 240.404 -94.2628 234.262 -99.9922 213.12V184.177C-97.1119 174.726 -91.0166 166.957 -81.9398 161.329C-68.4414 152.945 -53.4327 152.299 -49.1512 152.299C-20.504 152.299 -1.26061 176.96 -1.26061 199.995C-1.26061 205.67 -1.75104 211.018 -2.69297 215.984C4.92811 221.418 19.1116 226.953 39.6083 216.436C53.1768 209.476 55.1619 196.935 53.9708 186.551C53.8852 186.208 53.8463 185.866 53.8385 185.516C52.881 178.478 50.5456 172.578 49.5726 170.343C44.6449 159.017 29.6908 150.711 14.1061 157.055C10.4085 158.558 8.00302 160.761 6.76527 163.789C4.13409 170.219 7.50481 178.361 7.54373 178.439C8.57129 180.806 7.48146 183.554 5.11495 184.581C2.74844 185.609 0.000487749 184.519 -1.02707 182.153C-1.22947 181.678 -6.01697 170.39 -1.87559 160.255C0.327442 154.852 4.52332 150.866 10.5875 148.399C20.0535 144.545 30.2669 144.53 39.3437 148.344C47.7821 151.894 54.6325 158.55 58.1356 166.615C60.4476 171.924 62.2069 177.817 63.0476 183.818C65.095 186.683 72.537 196.048 84.1049 198.632C92.7068 200.555 101.963 198.368 111.608 192.132C113.772 190.731 116.668 191.354 118.069 193.518C119.47 195.682 118.847 198.578 116.683 199.979C114.223 201.567 111.771 202.93 109.335 204.089C117.29 211.321 134.837 224.119 158.043 222.453C177.597 221.044 189.671 212.824 196.366 206.168C204.688 197.901 209.452 187.259 209.452 176.968C209.452 163.758 206.463 151.902 201.045 143.58C194.576 133.655 184.705 128.618 171.705 128.618C158.105 128.618 147.16 134.612 143.135 144.265C139.406 153.217 142.38 163.804 151.083 172.578C152.897 174.407 152.889 177.365 151.052 179.179C149.223 180.993 146.265 180.985 144.443 179.148C132.992 167.603 129.279 153.217 134.502 140.661C139.998 127.458 154.252 119.261 171.689 119.261C196.21 119.261 209.576 134.137 215.314 152.696C217.898 152.781 222.094 152.322 225.986 149.239C232.735 143.899 236.309 132.378 236.309 115.929C236.309 101.948 232.837 92.2487 225.994 87.1031C218.21 81.2491 207.731 82.6114 203.839 83.3976C202.345 93.175 197.791 100.422 194 104.938C193.073 106.043 191.75 106.603 190.419 106.603C189.36 106.603 188.293 106.245 187.422 105.514C185.444 103.855 185.187 100.913 186.846 98.9356C192.629 92.0385 200.593 77.0999 188.978 54.4624C176.998 31.1087 148.483 42.0616 142.886 44.4982C131.56 49.4258 123.261 64.38 129.598 79.9646C130.571 82.3545 129.419 85.0791 127.029 86.0522C124.639 87.0252 121.914 85.8731 120.941 83.4833C118.116 76.5394 117.361 69.1908 118.661 62.1847C118.513 61.9278 118.38 61.6554 118.279 61.3595C118.248 61.2583 114.792 51.4498 106.921 41.8514C96.7159 29.3961 84.1438 23.0829 69.5633 23.0829C42.5431 23.0829 22.0931 30.8441 8.77369 46.1563C-1.15941 57.5762 -3.26902 69.2297 -3.28459 69.3465C-3.6816 71.6196 -5.6511 73.231 -7.88527 73.231C-8.14216 73.231 -8.40684 73.2076 -8.67151 73.1687C-11.2093 72.7406 -12.9219 70.3429 -12.5015 67.8052C-12.4626 67.5483 -11.9488 64.6213 -10.3296 60.2464C-13.1165 57.4361 -19.6088 51.878 -27.5491 51.4654C-33.3174 51.1696 -39.0157 53.684 -44.5116 58.9463C-39.1714 66.6375 -37.3965 74.5699 -36.8983 80.2215C-36.6726 82.7904 -38.572 85.0557 -41.1409 85.2815C-43.7098 85.5072 -45.9751 83.6078 -46.2009 81.0389C-46.9871 72.0789 -51.9225 55.8792 -76.1403 48.0869C-85.9878 44.9186 -93.8969 47.3551 -99.9922 51.8079V40.9095Z" fill="#FF722C"/>
</svg>
