<svg width="282" height="431" viewBox="0 0 282 431" fill="none" xmlns="http://www.w3.org/2000/svg">
<path d="M435.468 324.784C435.468 324.784 393.422 339.65 372.436 298.475C372.436 298.475 343.747 297.29 336.126 276.055C336.126 276.055 320.006 274.119 314.259 264.04C314.259 264.04 276.951 291.726 240.905 260.308C240.905 260.308 228.284 272.154 216.981 272.858C216.981 272.858 199.028 297.661 169.897 308.518C141.491 319.101 88.8846 323.911 67.5862 262.622C67.5862 262.622 31.7245 264.08 25.4647 199.854C21.6005 160.201 58.8578 151.522 58.8578 151.522C58.8578 151.522 61.5048 81.7713 139.44 96.8335C139.44 96.8335 170.634 21.6372 271.301 60.1538C271.301 60.1538 297.184 40.2802 315.426 52.703C315.426 52.703 334.313 31.2585 361.218 32.3205L435.475 324.781L435.468 324.784Z" fill="#F94B18"/>
<path d="M45.3338 202.302C45.3338 202.302 50.2673 256.241 83.9203 242.902L88.9132 265.985C95.2877 286.413 120.507 303.46 155.196 296.267C183.631 290.37 199.18 267.98 203.953 259.912L205.563 256.997C228.089 257.275 238.536 239.884 241.942 232.524L243.259 229.296C244.819 241.89 251.159 254.73 268.18 257.973C291.416 262.403 305.923 253.936 314.083 244.468L316.242 241.747C322.341 253.154 331.473 261.16 343.691 262.093L347.042 262.291C352.517 283.856 369.533 284.107 379.107 282.37L385.823 280.565C384.919 286.647 386.18 293.938 392.106 302.054C405.281 320.14 431.228 309.35 431.228 309.35L365.627 50.9926C365.627 50.9926 347.054 39.1581 320.201 72.6636C320.201 72.6636 308.214 67.0929 293.773 71.1426C284.01 73.8803 275.615 89.2578 275.615 89.2578C275.615 89.2578 253.799 54.3003 192.442 71.5068C154.722 82.0845 149.47 122.389 149.47 122.389C149.47 122.389 135.591 104.658 99.8894 114.67C67.3451 123.796 78.0066 165.333 78.0066 165.333C38.3467 162.239 45.3338 202.302 45.3338 202.302Z" fill="#FC892E"/>
<path d="M364.41 46.006C356.031 44.4856 346.941 45.8497 337.742 51.747C328.669 57.5615 322.579 63.8348 318.552 70.0038C309.654 65.4769 301.057 64.5544 292.973 67.2954C284.216 70.2568 278.197 76.8736 274.775 81.7194C272.067 78.9877 268.742 76.1522 264.737 73.5076C251.569 64.8387 228.149 56.667 191.318 66.9957C174.26 71.7794 160.911 83.3981 152.727 100.583C149.991 106.326 148.269 111.769 147.191 116.069C141.982 111.234 135.329 108.06 128.306 107.178C107.486 104.565 80.934 110.732 74.6454 136.705C72.3264 146.281 72.2446 154.314 73.4884 161.019C67.101 161.862 55.6722 164.656 48.0708 173.976C40.5558 183.184 38.8331 196.077 42.9503 212.292C47.7153 231.058 55.6573 242.756 66.5509 247.047C72.2758 249.305 77.6583 249.019 81.6559 248.151C82.0095 253.06 82.8271 257.957 84.0272 262.684C87.0959 274.769 95.9092 285.544 108.203 292.254C117.748 297.461 133.818 302.686 156.219 298.039C157.891 297.688 159.519 297.295 161.102 296.851C189.078 289.005 204.055 266.67 208.578 258.806C211.778 258.635 214.865 258.148 217.84 257.314C220.608 256.538 223.262 255.478 225.819 254.129C233.199 250.227 238.4 244.582 241.903 239.508C245.993 249.324 253.918 257.213 267.326 259.764C278.429 261.879 287.591 261.253 295.084 259.151C304.389 256.542 311.102 251.658 315.735 246.938C317.983 250.178 320.472 253.011 323.193 255.376C329.144 260.556 336.059 263.435 343.621 263.96C346.463 272.571 351.444 278.638 358.463 281.994C366.516 285.841 375.347 285.134 381.184 283.932C381.627 289.384 383.677 295.523 388.474 302.093C398.9 316.381 416.995 315.682 428.311 312.508C429.558 312.159 430.722 311.777 431.778 311.386L429.539 302.504C426.794 303.566 406.603 310.753 396.249 296.555C390.182 288.241 388.949 280.095 392.578 272.356C395.422 266.298 400.271 262.592 400.327 262.552C402.423 260.969 402.901 258.078 401.38 256.088C399.859 254.097 396.919 253.745 394.812 255.315C394.544 255.517 388.165 260.299 384.222 268.412C383.373 270.166 382.594 272.162 382.028 274.351C378.008 275.454 369.758 276.994 362.87 273.673C358.81 271.715 355.702 268.25 353.59 263.352C354.976 263.098 356.378 262.784 357.793 262.387C360.324 261.677 361.877 259.117 361.257 256.676C360.637 254.236 358.077 252.829 355.546 253.539C337.402 258.627 326.816 248.191 320.831 237.01C320.756 236.842 320.671 236.668 320.565 236.508C317.677 230.975 315.89 225.323 314.873 221.319C310.419 203.777 320.864 180.721 343.512 174.37C358.253 170.236 387.945 169.532 394.779 196.446C402.448 226.65 381.046 234.294 376.673 235.521C372.911 236.576 360.354 238.928 356.801 224.933C354.245 214.867 361.86 210.536 362.74 210.068C365.102 208.884 366.093 206.11 364.98 203.855C363.866 201.6 361.036 200.743 358.675 201.927C353.29 204.622 344.063 213.442 347.631 227.496C351.831 244.035 366.378 247.878 378.925 244.36C389.752 241.324 405.287 230.735 405.83 209.129L398.868 181.714C393.766 173.555 385.911 167.875 375.642 165.044C360.367 160.82 345.47 164.342 341.265 165.522C313.128 173.412 300.158 202.073 305.698 223.892C307.063 229.268 308.831 234.198 310.951 238.643C304.772 245.89 292.172 255.039 269.511 250.723C254.51 247.868 249.544 236.536 248.216 226.371C248.218 226.023 248.174 225.688 248.097 225.354C247.345 218.424 248.219 212.191 248.638 209.807C250.754 197.721 263.444 185.734 280.277 187.451C284.27 187.856 287.163 189.28 289.107 191.807C293.238 197.173 291.886 205.815 291.866 205.899C291.426 208.424 293.157 210.727 295.729 211.048C298.3 211.37 300.737 209.58 301.177 207.056C301.262 206.55 303.25 194.539 296.744 186.08C293.281 181.569 288.201 178.949 281.651 178.282C271.427 177.239 261.391 180.038 253.394 186.151C245.959 191.838 240.831 200.029 239.33 208.634C238.336 214.299 238.026 220.366 238.644 226.283C237.322 229.56 232.264 240.481 221.524 246.115C213.538 250.306 203.92 250.783 192.947 247.534C190.484 246.802 187.79 248.19 186.934 250.626C186.078 253.062 187.387 255.633 189.849 256.364C192.647 257.191 195.383 257.806 198.056 258.234C191.981 267.275 177.825 284.231 154.631 289.045C135.085 293.096 121.249 288.635 113.073 284.175C102.911 278.636 95.6719 269.868 93.1967 260.12C90.0194 247.607 90.1039 235.553 93.4241 226.178C97.3908 214.995 105.875 207.505 118.643 203.924C132.001 200.178 144.193 202.841 150.468 210.876C156.283 218.329 155.909 229.176 149.471 239.884C148.129 242.116 148.848 244.916 151.089 246.128C153.322 247.342 156.226 246.52 157.573 244.278C166.044 230.189 166.231 215.539 158.08 205.084C149.507 194.092 133.535 190.253 116.408 195.056C92.3232 201.811 82.7729 219.584 81.6014 238.743C79.0835 239.536 74.8518 240.257 70.2873 238.409C62.3738 235.209 56.0932 225.28 52.1371 209.7C48.7744 196.456 49.8516 186.312 55.3349 179.553C61.573 171.864 72.1922 170.268 76.2044 169.941C80.024 178.791 86.2401 184.401 91.0496 187.634C92.2254 188.426 93.66 188.592 94.9675 188.226C96.0074 187.934 96.9687 187.301 97.6491 186.368C99.1924 184.252 98.737 181.394 96.6328 179.978C89.2929 175.038 77.8781 163.081 83.8413 138.439C89.9916 113.018 120.633 115.538 126.717 116.305C139.027 117.853 150.775 129.732 148.299 146.24C147.918 148.771 149.705 151.035 152.286 151.298C154.868 151.562 157.267 149.72 157.648 147.188C158.753 139.832 157.727 132.664 154.765 126.385C154.849 126.101 154.913 125.807 154.942 125.499C154.948 125.394 155.984 115.151 161.405 103.891C168.433 89.2822 179.263 79.8392 193.584 75.8231C220.124 68.3805 242.077 70.0994 258.842 80.9349C271.345 89.0163 276.22 99.4738 276.263 99.5801C277.2 101.624 279.522 102.608 281.716 101.992C281.969 101.922 282.223 101.827 282.474 101.717C284.863 100.612 285.969 97.8694 284.945 95.5813C284.845 95.3487 283.637 92.7177 280.994 89.0196C283.056 85.59 288.096 78.5368 295.795 75.9589C301.39 74.0899 307.591 74.902 314.255 78.3729C310.86 87.1292 311.024 95.132 311.894 100.623C312.291 103.118 314.701 104.741 317.279 104.247C319.856 103.753 321.624 101.33 321.228 98.8345C319.845 90.1307 320.797 73.4264 342.709 59.3745C351.619 53.661 359.974 53.7904 367.032 56.3293L364.41 46.006Z" fill="#FF722C"/>
</svg>
